<svg xmlns="http://www.w3.org/2000/svg" xmlns:xlink="http://www.w3.org/1999/xlink" contentStyleType="text/css" data-diagram-type="DESCRIPTION" height="239px" preserveAspectRatio="none" style="width:184px;height:239px;background:#FFFFFF;" version="1.1" viewBox="0 0 184 239" width="184px" zoomAndPan="magnify"><defs/><g><!--entity First Actor--><g class="entity" data-entity="First Actor" data-source-line="1" data-uid="ent0002" id="entity_First Actor"><ellipse cx="42.0083" cy="22.15" fill="#F1F1F1" rx="8" ry="8" style="stroke:#181818;stroke-width:0.5;"/><path d="M42.0083,30.15 L42.0083,57.15 M29.0083,38.15 L55.0083,38.15 M42.0083,57.15 L29.0083,72.15 M42.0083,57.15 L55.0083,72.15" fill="none" style="stroke:#181818;stroke-width:0.5;"/><text fill="#000000" font-family="sans-serif" font-size="14" lengthAdjust="spacing" textLength="72.0166" x="6" y="86.6451">First Actor</text></g><!--entity Man2--><g class="entity" data-entity="Man2" data-source-line="2" data-uid="ent0003" id="entity_Man2"><ellipse cx="141.0035" cy="14" fill="#F1F1F1" rx="8" ry="8" style="stroke:#181818;stroke-width:0.5;"/><path d="M141.0035,22 L141.0035,49 M128.0035,30 L154.0035,30 M141.0035,49 L128.0035,64 M141.0035,49 L154.0035,64" fill="none" style="stroke:#181818;stroke-width:0.5;"/><text fill="#000000" font-family="sans-serif" font-size="14" lengthAdjust="spacing" textLength="55.7471" x="113.13" y="78.4951">Another</text><text fill="#000000" font-family="sans-serif" font-size="14" lengthAdjust="spacing" textLength="36.0869" x="113.13" y="94.792">actor</text></g><!--entity Woman3--><g class="entity" data-entity="Woman3" data-source-line="3" data-uid="ent0004" id="entity_Woman3"><ellipse cx="42.0126" cy="166.59" fill="#F1F1F1" rx="8" ry="8" style="stroke:#181818;stroke-width:0.5;"/><path d="M42.0126,174.59 L42.0126,201.59 M29.0126,182.59 L55.0126,182.59 M42.0126,201.59 L29.0126,216.59 M42.0126,201.59 L55.0126,216.59" fill="none" style="stroke:#181818;stroke-width:0.5;"/><text fill="#000000" font-family="sans-serif" font-size="14" lengthAdjust="spacing" textLength="62.4053" x="10.81" y="231.0851">Woman3</text></g><!--entity Person1--><g class="entity" data-entity="Person1" data-source-line="4" data-uid="ent0005" id="entity_Person1"><ellipse cx="143.0096" cy="166.59" fill="#F1F1F1" rx="8" ry="8" style="stroke:#181818;stroke-width:0.5;"/><path d="M143.0096,174.59 L143.0096,201.59 M130.0096,182.59 L156.0096,182.59 M143.0096,201.59 L130.0096,216.59 M143.0096,201.59 L156.0096,216.59" fill="none" style="stroke:#181818;stroke-width:0.5;"/><text fill="#000000" font-family="sans-serif" font-size="14" lengthAdjust="spacing" textLength="69.6992" x="108.16" y="231.0851">Last actor</text></g><!--SRC=[itBBB2ekKN1CBialikAoSipBByb8BOh9ImGBA2GMA_WcvXbnWRaAuVcvYNd6K8wLJo9G8q9TG6fHSNwU8G00]--></g></svg>