<svg version="1.1" xmlns="http://www.w3.org/2000/svg" viewBox="0 0 220 170" width="220" height="170"><!-- svg-source:excalidraw --><metadata></metadata><defs><style class="style-fonts">
      </style></defs><rect x="0" y="0" width="220" height="170" fill="#ffffff"></rect><g stroke-linecap="round" transform="translate(10 10) rotate(0 100 75)"><path d="M0 0 C40.77 0.5, 79.71 0.68, 200 0 M0 0 C54.58 0.01, 108.59 1.1, 200 0 M200 0 C202.02 35.44, 200.88 69.38, 200 150 M200 0 C198.99 57.06, 197.89 113.13, 200 150 M200 150 C128.95 147.74, 54.83 149.09, 0 150 M200 150 C152.04 147.79, 102.98 148.59, 0 150 M0 150 C-0.01 100.88, 0.52 47.58, 0 0 M0 150 C-0.22 98.19, -0.06 45.3, 0 0" stroke="#000000" stroke-width="2" fill="none"></path></g></svg>